<svg width="1600" height="1191" viewBox="0 0 1600 1191" fill="none" xmlns="http://www.w3.org/2000/svg">
<rect width="1600" height="1191" fill="url(#paint0_linear_4044_10533)"/>
<g opacity="0.4" clip-path="url(#clip0_4044_10533)">
<path d="M681.038 999.177C607.178 971.881 538.12 931.731 479.52 879.546C395.214 803.267 335.807 708.537 311.713 591.315C310.907 588.907 312.519 587.295 311.713 584.888C304.492 553.572 302.88 524.675 302.074 493.359C302.074 440.368 308.5 390.591 303.674 337.6C302.073 324.758 300.461 313.517 298.054 301.47C293.24 280.6 288.414 261.32 280.386 242.052C265.932 208.329 248.275 176.219 224.988 146.505C167.19 74.2552 86.9171 26.0818 1.02283 -2.01062C1.01538 -2.00696 1.00769 -2.00366 1.00037 -1.99988C1.00562 -2.00427 1.0116 -2.0083 1.01697 -2.01257C1.0072 -2.01575 0.997314 -2.01917 0.987671 -2.02234L1.0238 -2.01746C97.5322 -80.3533 215.609 -134.847 340.498 -141.659C382.51 -142.795 422.25 -140.524 464.261 -133.712C468.803 -132.576 472.209 -131.441 475.616 -130.306C552.826 -115.545 615.275 -78.075 683.402 -44.0116C748.122 -11.0837 818.519 2.54199 891.188 -5.40613C1011.54 -20.167 1114.87 -88.2936 1189.81 -179.129C1194.35 -84.8872 1190.94 8.21936 1187.54 102.461C1185.27 143.337 1184.13 184.213 1189.81 225.089C1118.28 258.017 1041.07 278.454 962.72 282.996C849.176 288.673 740.174 263.693 640.255 197.838C637.984 196.703 637.984 194.431 635.713 193.296C608.463 176.264 586.889 156.962 564.18 135.389C526.711 97.9193 496.054 58.1786 455.178 24.1154C444.959 16.1674 435.875 9.35461 425.657 2.54211C407.49 -8.81238 390.457 -19.0312 371.155 -26.9794C337.091 -40.6047 301.893 -50.8243 264.423 -55.3661C172.465 -65.5836 81.6425 -42.8817 1.03455 -2.01648L3.89685 -1.69324C126.542 11.5466 247.402 56.4579 339.815 139.306C370.324 168.214 396.815 197.917 421.703 232.435C424.11 236.454 425.723 239.656 427.324 242.869C471.481 307.907 489.149 378.555 513.232 450.815C535.714 519.861 575.851 579.279 632.862 625.037C728.409 699.704 849.641 724.593 966.864 713.352C903.438 783.204 835.186 846.63 766.14 910.862C735.631 938.158 705.927 966.26 681.038 999.177ZM178.129 1186.81C83.8875 1191.35 -9.21887 1187.94 -103.461 1184.54C-144.337 1182.27 -185.213 1181.13 -226.089 1186.81C-259.016 1115.28 -279.454 1038.07 -283.996 959.72C-289.673 846.176 -264.693 737.173 -198.838 637.254C-197.702 634.983 -195.432 634.983 -194.297 632.712C-177.265 605.461 -157.962 583.889 -136.388 561.18C-98.9187 523.71 -59.1782 493.053 -25.1149 452.177C-17.1669 441.958 -10.3544 432.874 -3.54163 422.655C7.81274 404.488 18.0317 387.457 25.9799 368.154C39.6051 334.091 49.8237 298.892 54.3656 261.423C64.5845 169.452 41.8761 78.6165 1.00037 -1.99988C79.3457 94.5127 133.847 212.599 140.66 337.497C141.795 379.509 139.524 419.249 132.711 461.261C131.576 465.802 130.44 469.208 129.305 472.614C114.544 549.824 77.0743 612.274 43.0111 680.4C10.0833 745.121 -3.5415 815.518 4.40662 888.187C19.1674 1008.54 87.2938 1111.87 178.129 1186.81Z" fill="#1A1A1A" fill-opacity="0.2"/>
<path d="M1189.81 175.129C1194.35 80.8873 1190.94 -12.2191 1187.54 -106.461C1185.27 -147.337 1184.13 -188.213 1189.81 -229.089C1118.28 -262.016 1041.07 -282.454 962.721 -286.996C849.177 -292.673 740.174 -267.693 640.255 -201.838C637.984 -200.702 637.984 -198.431 635.713 -197.296C608.462 -180.264 586.888 -160.962 564.18 -139.389C526.71 -101.919 496.054 -62.1783 455.178 -28.1151C444.959 -20.1671 435.875 -13.3545 425.656 -6.54187C407.489 4.81238 390.458 15.0315 371.155 22.9796C337.092 36.6049 301.892 46.8246 264.423 51.3663C172.452 61.5852 81.6172 38.8759 1.00098 -1.99988C97.5135 76.3455 215.599 130.847 340.498 137.659C382.509 138.795 422.25 136.525 464.261 129.712C468.802 128.577 472.209 127.44 475.615 126.305C552.825 111.544 615.275 74.0751 683.401 40.0118C748.122 7.08398 818.519 -6.54175 891.188 1.40637C1011.54 16.1671 1114.87 84.2937 1189.81 175.129ZM-176.129 1186.81C-81.8872 1191.35 11.2192 1187.94 105.461 1184.54C146.337 1182.27 187.213 1181.13 228.089 1186.81C261.017 1115.28 281.454 1038.07 285.996 959.72C291.673 846.176 266.694 737.173 200.838 637.254C199.702 634.983 197.432 634.983 196.297 632.712C179.265 605.461 159.962 583.889 138.389 561.18C100.919 523.71 61.1785 493.053 27.1152 452.177C19.1672 441.958 12.3546 432.874 5.54199 422.655C-5.81238 404.488 -16.0314 387.457 -23.9795 368.154C-37.6048 334.091 -47.8235 298.892 -52.3652 261.422C-62.5826 169.465 -39.8827 78.6434 0.981445 -1.96375L1.30664 0.897583C14.5466 123.543 59.4576 244.404 142.306 336.816C171.214 367.326 200.917 393.815 235.435 418.704C239.454 421.111 242.656 422.723 245.869 424.324C310.907 468.482 381.555 486.15 453.814 510.232C522.86 532.714 582.278 572.852 628.036 629.862C702.703 725.41 727.592 846.641 716.352 963.864C786.204 900.439 849.629 832.187 913.861 763.141C941.157 732.631 969.26 702.928 1002.18 678.039C974.881 604.179 934.731 535.121 882.546 476.521C806.267 392.214 711.536 332.808 594.313 308.714C591.907 307.908 590.295 309.52 587.888 308.714C556.572 301.493 527.675 299.88 496.359 299.074C443.368 299.074 393.591 305.5 340.6 300.675C327.758 299.074 316.517 297.462 304.47 295.055C283.6 290.24 264.32 285.414 245.052 277.387C211.329 262.933 179.218 245.276 149.504 221.988C77.2544 164.191 29.0798 83.9186 0.987305 -1.97546C0.991455 -1.98364 0.99585 -1.9917 1 -1.99988C0.995193 -1.99402 0.990158 -1.98828 0.985352 -1.9823C0.982224 -1.99194 0.979691 -2.00208 0.976563 -2.0116L0.980469 -1.97546C-77.3543 94.5326 -131.847 212.609 -138.659 337.497C-139.795 379.508 -137.524 419.249 -130.711 461.26C-129.576 465.801 -128.44 469.208 -127.305 472.614C-112.544 549.824 -75.074 612.274 -41.0107 680.4C-8.08293 745.121 5.54181 815.518 -2.40625 888.187C-17.167 1008.54 -85.2935 1111.87 -176.129 1186.81Z" fill="#1A1A1A" fill-opacity="0.09"/>
</g>
<defs>
<linearGradient id="paint0_linear_4044_10533" x1="0" y1="0" x2="1648.37" y2="1119.79" gradientUnits="userSpaceOnUse">
<stop stop-color="#991B1B"/>
<stop offset="1" stop-color="#030712"/>
</linearGradient>
<clipPath id="clip0_4044_10533">
<rect width="1192" height="1189" fill="white"/>
</clipPath>
</defs>
</svg>
